<svg width="21" height="20" viewBox="0 0 21 20" fill="none" xmlns="http://www.w3.org/2000/svg">
<path d="M19.7297 13.9836H5.19202C4.91662 13.9836 4.6525 13.8783 4.45776 13.691C4.26302 13.5037 4.15362 13.2496 4.15362 12.9847C4.15362 12.7198 4.26302 12.4658 4.45776 12.2785C4.6525 12.0911 4.91662 11.9859 5.19202 11.9859H16.033C16.7273 11.9859 17.4017 11.7629 17.9492 11.3521C18.4967 10.9413 18.8858 10.3664 19.0547 9.71857L20.7681 3.23619C20.807 3.08877 20.8104 2.93476 20.778 2.78589C20.7456 2.63703 20.6783 2.49725 20.5812 2.3772C20.4802 2.25408 20.3505 2.15556 20.2026 2.08962C20.0546 2.02368 19.8926 1.99217 19.7297 1.99765H4.94281C4.72857 1.41479 4.33215 0.909928 3.8079 0.552289C3.28364 0.19465 2.65722 0.00173747 2.01451 0H1.0384C0.763003 0 0.49888 0.105233 0.304142 0.292549C0.109403 0.479865 0 0.73392 0 0.998825C0 1.26373 0.109403 1.51779 0.304142 1.7051C0.49888 1.89242 0.763003 1.99765 1.0384 1.99765H2.01451C2.25171 1.991 2.48413 2.06271 2.67307 2.20082C2.862 2.33894 2.99606 2.53514 3.05291 2.75676L3.11521 3.23619L4.91166 9.98825C4.08545 10.024 3.30785 10.374 2.74992 10.9612C2.192 11.5485 1.89945 12.3249 1.93663 13.1196C1.9738 13.9143 2.33767 14.6622 2.94818 15.1989C3.55868 15.7356 4.36582 16.017 5.19202 15.9812H5.37894C5.20816 16.4338 5.15328 16.9193 5.21895 17.3966C5.28462 17.874 5.46891 18.329 5.75621 18.7233C6.04351 19.1176 6.42535 19.4395 6.86941 19.6617C7.31348 19.884 7.80667 20 8.30724 20C8.80781 20 9.301 19.884 9.74506 19.6617C10.1891 19.4395 10.571 19.1176 10.8583 18.7233C11.1456 18.329 11.3299 17.874 11.3955 17.3966C11.4612 16.9193 11.4063 16.4338 11.2355 15.9812H13.6862C13.5154 16.4338 13.4605 16.9193 13.5262 17.3966C13.5919 17.874 13.7762 18.329 14.0634 18.7233C14.3507 19.1176 14.7326 19.4395 15.1767 19.6617C15.6207 19.884 16.1139 20 16.6145 20C17.115 20 17.6082 19.884 18.0523 19.6617C18.4964 19.4395 18.8782 19.1176 19.1655 18.7233C19.4528 18.329 19.6371 17.874 19.7028 17.3966C19.7684 16.9193 19.7136 16.4338 19.5428 15.9812H19.7297C20.0051 15.9812 20.2692 15.876 20.464 15.6887C20.6587 15.5013 20.7681 15.2473 20.7681 14.9824C20.7681 14.7175 20.6587 14.4634 20.464 14.2761C20.2692 14.0888 20.0051 13.9836 19.7297 13.9836ZM18.4005 3.9953L17.0402 9.22914C16.9834 9.45076 16.8493 9.64696 16.6604 9.78508C16.4714 9.92319 16.239 9.9949 16.0018 9.98825H7.04039L5.48278 3.9953H18.4005ZM8.30724 17.9789C8.10186 17.9789 7.9011 17.9203 7.73033 17.8105C7.55957 17.7008 7.42647 17.5448 7.34788 17.3623C7.26928 17.1797 7.24872 16.9789 7.28879 16.7852C7.32885 16.5914 7.42775 16.4134 7.57298 16.2738C7.7182 16.1341 7.90323 16.0389 8.10466 16.0004C8.30609 15.9619 8.51488 15.9816 8.70462 16.0572C8.89436 16.1328 9.05654 16.2609 9.17064 16.4251C9.28474 16.5894 9.34564 16.7825 9.34564 16.98C9.34564 17.2449 9.23624 17.499 9.0415 17.6863C8.84676 17.8736 8.58264 17.9789 8.30724 17.9789ZM16.6145 17.9789C16.4091 17.9789 16.2083 17.9203 16.0376 17.8105C15.8668 17.7008 15.7337 17.5448 15.6551 17.3623C15.5765 17.1797 15.556 16.9789 15.596 16.7852C15.6361 16.5914 15.735 16.4134 15.8802 16.2738C16.0254 16.1341 16.2105 16.0389 16.4119 16.0004C16.6133 15.9619 16.8221 15.9816 17.0119 16.0572C17.2016 16.1328 17.3638 16.2609 17.4779 16.4251C17.592 16.5894 17.6529 16.7825 17.6529 16.98C17.6529 17.2449 17.5435 17.499 17.3487 17.6863C17.154 17.8736 16.8899 17.9789 16.6145 17.9789Z" fill="#010049"/>
</svg>
